<mxfile host="app.diagrams.net" agent="Mozilla/5.0 (Windows NT 10.0; Win64; x64) AppleWebKit/537.36 (KHTML, like Gecko) Chrome/131.0.0.0 Safari/537.36 Edg/131.0.0.0" version="25.0.0">
  <diagram name="Страница — 1" id="PluoTC03t5ioQzYIRZKo">
    <mxGraphModel dx="2355" dy="827" grid="1" gridSize="10" guides="1" tooltips="1" connect="1" arrows="1" fold="1" page="1" pageScale="1" pageWidth="827" pageHeight="1169" math="0" shadow="0">
      <root>
        <mxCell id="0" />
        <mxCell id="1" parent="0" />
        <mxCell id="gOrN51QPEZZLWdhgSmQ9-6" style="edgeStyle=orthogonalEdgeStyle;rounded=0;orthogonalLoop=1;jettySize=auto;html=1;entryX=0.5;entryY=0;entryDx=0;entryDy=0;endArrow=ERoneToMany;endFill=0;startArrow=ERone;startFill=0;" parent="1" source="gOrN51QPEZZLWdhgSmQ9-1" target="gOrN51QPEZZLWdhgSmQ9-4" edge="1">
          <mxGeometry relative="1" as="geometry" />
        </mxCell>
        <mxCell id="Xh0VEZjc3AiM8Z3Ws0BZ-1" style="edgeStyle=orthogonalEdgeStyle;rounded=0;orthogonalLoop=1;jettySize=auto;html=1;exitX=1;exitY=0.5;exitDx=0;exitDy=0;entryX=0.5;entryY=0;entryDx=0;entryDy=0;endArrow=ERoneToMany;endFill=0;startArrow=ERoneToMany;startFill=0;" edge="1" parent="1" source="gOrN51QPEZZLWdhgSmQ9-1" target="gOrN51QPEZZLWdhgSmQ9-3">
          <mxGeometry relative="1" as="geometry" />
        </mxCell>
        <mxCell id="gOrN51QPEZZLWdhgSmQ9-1" value="User" style="rounded=0;whiteSpace=wrap;html=1;" parent="1" vertex="1">
          <mxGeometry x="130" y="130" width="120" height="60" as="geometry" />
        </mxCell>
        <mxCell id="gOrN51QPEZZLWdhgSmQ9-9" style="edgeStyle=orthogonalEdgeStyle;rounded=0;orthogonalLoop=1;jettySize=auto;html=1;exitX=0;exitY=0.5;exitDx=0;exitDy=0;entryX=1;entryY=0.5;entryDx=0;entryDy=0;endArrow=ERone;endFill=0;startArrow=ERone;startFill=0;" parent="1" source="gOrN51QPEZZLWdhgSmQ9-3" target="gOrN51QPEZZLWdhgSmQ9-4" edge="1">
          <mxGeometry relative="1" as="geometry" />
        </mxCell>
        <mxCell id="gOrN51QPEZZLWdhgSmQ9-3" value="Listing" style="rounded=0;whiteSpace=wrap;html=1;" parent="1" vertex="1">
          <mxGeometry x="430" y="350" width="120" height="60" as="geometry" />
        </mxCell>
        <mxCell id="gOrN51QPEZZLWdhgSmQ9-4" value="Book" style="rounded=0;whiteSpace=wrap;html=1;" parent="1" vertex="1">
          <mxGeometry x="130" y="350" width="120" height="60" as="geometry" />
        </mxCell>
        <mxCell id="gOrN51QPEZZLWdhgSmQ9-10" value="first_name" style="ellipse;whiteSpace=wrap;html=1;" parent="1" vertex="1">
          <mxGeometry x="10" y="10" width="90" height="60" as="geometry" />
        </mxCell>
        <mxCell id="gOrN51QPEZZLWdhgSmQ9-11" value="last_name" style="ellipse;whiteSpace=wrap;html=1;" parent="1" vertex="1">
          <mxGeometry x="145" width="90" height="60" as="geometry" />
        </mxCell>
        <mxCell id="gOrN51QPEZZLWdhgSmQ9-12" value="email" style="ellipse;whiteSpace=wrap;html=1;" parent="1" vertex="1">
          <mxGeometry x="280" y="10" width="90" height="60" as="geometry" />
        </mxCell>
        <mxCell id="gOrN51QPEZZLWdhgSmQ9-14" value="" style="endArrow=none;html=1;rounded=0;entryX=0.5;entryY=1;entryDx=0;entryDy=0;exitX=0.5;exitY=0;exitDx=0;exitDy=0;" parent="1" source="gOrN51QPEZZLWdhgSmQ9-1" target="gOrN51QPEZZLWdhgSmQ9-12" edge="1">
          <mxGeometry width="50" height="50" relative="1" as="geometry">
            <mxPoint x="390" y="260" as="sourcePoint" />
            <mxPoint x="440" y="210" as="targetPoint" />
          </mxGeometry>
        </mxCell>
        <mxCell id="gOrN51QPEZZLWdhgSmQ9-15" value="" style="endArrow=none;html=1;rounded=0;entryX=0.5;entryY=1;entryDx=0;entryDy=0;exitX=0.5;exitY=0;exitDx=0;exitDy=0;" parent="1" source="gOrN51QPEZZLWdhgSmQ9-1" target="gOrN51QPEZZLWdhgSmQ9-11" edge="1">
          <mxGeometry width="50" height="50" relative="1" as="geometry">
            <mxPoint x="200" y="140" as="sourcePoint" />
            <mxPoint x="335" y="80" as="targetPoint" />
          </mxGeometry>
        </mxCell>
        <mxCell id="gOrN51QPEZZLWdhgSmQ9-16" value="" style="endArrow=none;html=1;rounded=0;entryX=1;entryY=1;entryDx=0;entryDy=0;" parent="1" target="gOrN51QPEZZLWdhgSmQ9-10" edge="1">
          <mxGeometry width="50" height="50" relative="1" as="geometry">
            <mxPoint x="190" y="130" as="sourcePoint" />
            <mxPoint x="200" y="70" as="targetPoint" />
          </mxGeometry>
        </mxCell>
        <mxCell id="gOrN51QPEZZLWdhgSmQ9-17" value="title" style="ellipse;whiteSpace=wrap;html=1;" parent="1" vertex="1">
          <mxGeometry x="70" y="490" width="90" height="60" as="geometry" />
        </mxCell>
        <mxCell id="gOrN51QPEZZLWdhgSmQ9-18" value="author" style="ellipse;whiteSpace=wrap;html=1;" parent="1" vertex="1">
          <mxGeometry y="440" width="90" height="60" as="geometry" />
        </mxCell>
        <mxCell id="gOrN51QPEZZLWdhgSmQ9-19" value="condition" style="ellipse;whiteSpace=wrap;html=1;" parent="1" vertex="1">
          <mxGeometry x="170" y="500" width="90" height="60" as="geometry" />
        </mxCell>
        <mxCell id="gOrN51QPEZZLWdhgSmQ9-20" value="genre" style="ellipse;whiteSpace=wrap;html=1;" parent="1" vertex="1">
          <mxGeometry x="260" y="460" width="90" height="60" as="geometry" />
        </mxCell>
        <mxCell id="gOrN51QPEZZLWdhgSmQ9-21" value="user_id" style="ellipse;whiteSpace=wrap;html=1;fontStyle=4" parent="1" vertex="1">
          <mxGeometry x="-20" y="120" width="90" height="60" as="geometry" />
        </mxCell>
        <mxCell id="gOrN51QPEZZLWdhgSmQ9-22" value="" style="endArrow=none;html=1;rounded=0;entryX=1;entryY=0.5;entryDx=0;entryDy=0;exitX=0;exitY=0.5;exitDx=0;exitDy=0;" parent="1" source="gOrN51QPEZZLWdhgSmQ9-1" target="gOrN51QPEZZLWdhgSmQ9-21" edge="1">
          <mxGeometry width="50" height="50" relative="1" as="geometry">
            <mxPoint x="200" y="140" as="sourcePoint" />
            <mxPoint x="97" y="71" as="targetPoint" />
          </mxGeometry>
        </mxCell>
        <mxCell id="gOrN51QPEZZLWdhgSmQ9-23" value="" style="endArrow=none;html=1;rounded=0;entryX=0.5;entryY=1;entryDx=0;entryDy=0;exitX=0;exitY=0.5;exitDx=0;exitDy=0;" parent="1" source="gOrN51QPEZZLWdhgSmQ9-20" target="gOrN51QPEZZLWdhgSmQ9-4" edge="1">
          <mxGeometry width="50" height="50" relative="1" as="geometry">
            <mxPoint x="390" y="470" as="sourcePoint" />
            <mxPoint x="440" y="420" as="targetPoint" />
          </mxGeometry>
        </mxCell>
        <mxCell id="gOrN51QPEZZLWdhgSmQ9-24" value="" style="endArrow=none;html=1;rounded=0;entryX=0.5;entryY=1;entryDx=0;entryDy=0;exitX=0.5;exitY=0;exitDx=0;exitDy=0;" parent="1" source="gOrN51QPEZZLWdhgSmQ9-19" target="gOrN51QPEZZLWdhgSmQ9-4" edge="1">
          <mxGeometry width="50" height="50" relative="1" as="geometry">
            <mxPoint x="310" y="480" as="sourcePoint" />
            <mxPoint x="200" y="420" as="targetPoint" />
          </mxGeometry>
        </mxCell>
        <mxCell id="gOrN51QPEZZLWdhgSmQ9-25" value="" style="endArrow=none;html=1;rounded=0;entryX=0.5;entryY=1;entryDx=0;entryDy=0;exitX=0.5;exitY=0;exitDx=0;exitDy=0;" parent="1" source="gOrN51QPEZZLWdhgSmQ9-17" target="gOrN51QPEZZLWdhgSmQ9-4" edge="1">
          <mxGeometry width="50" height="50" relative="1" as="geometry">
            <mxPoint x="255" y="520" as="sourcePoint" />
            <mxPoint x="200" y="420" as="targetPoint" />
          </mxGeometry>
        </mxCell>
        <mxCell id="gOrN51QPEZZLWdhgSmQ9-26" value="" style="endArrow=none;html=1;rounded=0;entryX=0.5;entryY=1;entryDx=0;entryDy=0;exitX=1;exitY=0.5;exitDx=0;exitDy=0;" parent="1" source="gOrN51QPEZZLWdhgSmQ9-18" target="gOrN51QPEZZLWdhgSmQ9-4" edge="1">
          <mxGeometry width="50" height="50" relative="1" as="geometry">
            <mxPoint x="125" y="520" as="sourcePoint" />
            <mxPoint x="200" y="420" as="targetPoint" />
          </mxGeometry>
        </mxCell>
        <mxCell id="gOrN51QPEZZLWdhgSmQ9-27" value="book_id" style="ellipse;whiteSpace=wrap;html=1;fontStyle=4" parent="1" vertex="1">
          <mxGeometry x="-30" y="330" width="90" height="60" as="geometry" />
        </mxCell>
        <mxCell id="gOrN51QPEZZLWdhgSmQ9-28" value="" style="endArrow=none;html=1;rounded=0;entryX=0;entryY=0.5;entryDx=0;entryDy=0;exitX=1;exitY=0.5;exitDx=0;exitDy=0;" parent="1" source="gOrN51QPEZZLWdhgSmQ9-27" target="gOrN51QPEZZLWdhgSmQ9-4" edge="1">
          <mxGeometry width="50" height="50" relative="1" as="geometry">
            <mxPoint x="80" y="480" as="sourcePoint" />
            <mxPoint x="200" y="420" as="targetPoint" />
          </mxGeometry>
        </mxCell>
        <mxCell id="gOrN51QPEZZLWdhgSmQ9-29" value="listing_id" style="ellipse;whiteSpace=wrap;html=1;fontStyle=4" parent="1" vertex="1">
          <mxGeometry x="600" y="410" width="90" height="60" as="geometry" />
        </mxCell>
        <mxCell id="gOrN51QPEZZLWdhgSmQ9-30" value="created_date" style="ellipse;whiteSpace=wrap;html=1;" parent="1" vertex="1">
          <mxGeometry x="445" y="450" width="90" height="60" as="geometry" />
        </mxCell>
        <mxCell id="gOrN51QPEZZLWdhgSmQ9-32" value="" style="endArrow=none;html=1;rounded=0;entryX=0.5;entryY=1;entryDx=0;entryDy=0;exitX=0.5;exitY=0;exitDx=0;exitDy=0;" parent="1" source="gOrN51QPEZZLWdhgSmQ9-30" target="gOrN51QPEZZLWdhgSmQ9-3" edge="1">
          <mxGeometry width="50" height="50" relative="1" as="geometry">
            <mxPoint x="390" y="370" as="sourcePoint" />
            <mxPoint x="440" y="320" as="targetPoint" />
          </mxGeometry>
        </mxCell>
        <mxCell id="gOrN51QPEZZLWdhgSmQ9-33" value="" style="endArrow=none;html=1;rounded=0;entryX=1;entryY=0.5;entryDx=0;entryDy=0;exitX=0;exitY=0.5;exitDx=0;exitDy=0;" parent="1" source="gOrN51QPEZZLWdhgSmQ9-29" target="gOrN51QPEZZLWdhgSmQ9-3" edge="1">
          <mxGeometry width="50" height="50" relative="1" as="geometry">
            <mxPoint x="535" y="460" as="sourcePoint" />
            <mxPoint x="500" y="420" as="targetPoint" />
          </mxGeometry>
        </mxCell>
        <mxCell id="gOrN51QPEZZLWdhgSmQ9-40" value="has" style="rhombus;whiteSpace=wrap;html=1;" parent="1" vertex="1">
          <mxGeometry x="150" y="240" width="80" height="60" as="geometry" />
        </mxCell>
        <mxCell id="gOrN51QPEZZLWdhgSmQ9-42" value="created" style="rhombus;whiteSpace=wrap;html=1;" parent="1" vertex="1">
          <mxGeometry x="450" y="130" width="80" height="60" as="geometry" />
        </mxCell>
        <mxCell id="gOrN51QPEZZLWdhgSmQ9-46" value="related" style="rhombus;whiteSpace=wrap;html=1;" parent="1" vertex="1">
          <mxGeometry x="300" y="350" width="80" height="60" as="geometry" />
        </mxCell>
        <mxCell id="Xh0VEZjc3AiM8Z3Ws0BZ-2" value="status" style="ellipse;whiteSpace=wrap;html=1;" vertex="1" parent="1">
          <mxGeometry x="600" y="310" width="90" height="60" as="geometry" />
        </mxCell>
        <mxCell id="Xh0VEZjc3AiM8Z3Ws0BZ-4" value="" style="endArrow=none;html=1;rounded=0;entryX=1;entryY=0.5;entryDx=0;entryDy=0;exitX=0;exitY=1;exitDx=0;exitDy=0;" edge="1" parent="1" source="Xh0VEZjc3AiM8Z3Ws0BZ-2" target="gOrN51QPEZZLWdhgSmQ9-3">
          <mxGeometry width="50" height="50" relative="1" as="geometry">
            <mxPoint x="610" y="450" as="sourcePoint" />
            <mxPoint x="560" y="390" as="targetPoint" />
          </mxGeometry>
        </mxCell>
      </root>
    </mxGraphModel>
  </diagram>
</mxfile>
